<svg width="25" height="24" viewBox="0 0 25 24" fill="none" xmlns="http://www.w3.org/2000/svg">
<mask id="mask0_2512_114" style="mask-type:alpha" maskUnits="userSpaceOnUse" x="0" y="-1" width="25" height="25">
<rect x="0.0419922" y="-0.00708008" width="24" height="24" fill="#D9D9D9"/>
</mask>
<g mask="url(#mask0_2512_114)">
<path d="M9.04199 11.9929C7.94199 11.9929 7.00033 11.6013 6.21699 10.8179C5.43366 10.0346 5.04199 9.09292 5.04199 7.99292C5.04199 6.89292 5.43366 5.95125 6.21699 5.16792C7.00033 4.38459 7.94199 3.99292 9.04199 3.99292C10.142 3.99292 11.0837 4.38459 11.867 5.16792C12.6503 5.95125 13.042 6.89292 13.042 7.99292C13.042 9.09292 12.6503 10.0346 11.867 10.8179C11.0837 11.6013 10.142 11.9929 9.04199 11.9929ZM17.042 18.9929C17.6087 18.9929 18.0795 18.8263 18.4545 18.4929C18.8295 18.1596 19.0253 17.6596 19.042 16.9929C19.0587 16.4263 18.8712 15.9513 18.4795 15.5679C18.0878 15.1846 17.6087 14.9929 17.042 14.9929C16.4753 14.9929 16.0003 15.1846 15.617 15.5679C15.2337 15.9513 15.042 16.4263 15.042 16.9929C15.042 17.5596 15.2337 18.0346 15.617 18.4179C16.0003 18.8013 16.4753 18.9929 17.042 18.9929ZM21.642 22.9929L19.092 20.4429C18.792 20.6263 18.4712 20.7638 18.1295 20.8554C17.7878 20.9471 17.4253 20.9929 17.042 20.9929C15.942 20.9929 15.0003 20.6013 14.217 19.8179C13.4337 19.0346 13.042 18.0929 13.042 16.9929C13.042 15.8929 13.4337 14.9513 14.217 14.1679C15.0003 13.3846 15.942 12.9929 17.042 12.9929C18.142 12.9929 19.0837 13.3846 19.867 14.1679C20.6503 14.9513 21.042 15.8929 21.042 16.9929C21.042 17.3763 20.9962 17.7388 20.9045 18.0804C20.8128 18.4221 20.6753 18.7429 20.492 19.0429L23.042 21.5929L21.642 22.9929ZM1.04199 19.9929V17.1929C1.04199 16.6263 1.18783 16.1054 1.47949 15.6304C1.77116 15.1554 2.15866 14.7929 2.64199 14.5429C3.67533 14.0263 4.72533 13.6388 5.79199 13.3804C6.85866 13.1221 7.94199 12.9929 9.04199 12.9929C9.57533 12.9929 10.1128 13.0221 10.6545 13.0804C11.1962 13.1388 11.7337 13.2346 12.267 13.3679C11.867 13.9013 11.5628 14.4763 11.3545 15.0929C11.1462 15.7096 11.042 16.3429 11.042 16.9929C11.042 17.5263 11.1087 18.0471 11.242 18.5554C11.3753 19.0638 11.5753 19.5429 11.842 19.9929H1.04199ZM19.042 7.99292C19.042 9.09292 18.6503 10.0346 17.867 10.8179C17.0837 11.6013 16.142 11.9929 15.042 11.9929C14.8587 11.9929 14.6253 11.9721 14.342 11.9304C14.0587 11.8888 13.8253 11.8429 13.642 11.7929C14.092 11.2596 14.4378 10.6679 14.6795 10.0179C14.9212 9.36792 15.042 8.69292 15.042 7.99292C15.042 7.29292 14.9212 6.61792 14.6795 5.96792C14.4378 5.31792 14.092 4.72625 13.642 4.19292C13.8753 4.10959 14.1087 4.05542 14.342 4.03042C14.5753 4.00542 14.8087 3.99292 15.042 3.99292C16.142 3.99292 17.0837 4.38459 17.867 5.16792C18.6503 5.95125 19.042 6.89292 19.042 7.99292Z" fill="#5AC6CD"/>
</g>
</svg>
