<svg width="200" height="200" viewBox="0 0 200 200" fill="none" xmlns="http://www.w3.org/2000/svg">
<g clip-path="url(#clip0_2446_2)">
<path d="M195.658 134.351L170.876 120.833L195.657 107.316C201.448 104.157 201.448 95.8426 195.658 92.684L170.876 79.166L195.657 65.6488C201.448 62.4902 201.448 54.1758 195.657 51.0172L103.991 1.01719C101.503 -0.33945 98.4973 -0.33945 96.0098 1.01719L4.34302 51.0172C-1.44761 54.1758 -1.44761 62.4902 4.34302 65.6488L29.1243 79.166L4.34263 92.684C-1.44761 95.8426 -1.44761 104.157 4.34302 107.316L29.1243 120.833L4.34263 134.351C-1.44761 137.51 -1.44761 145.824 4.34302 148.983L96.0098 198.983C98.4973 200.339 101.503 200.339 103.991 198.983L195.657 148.983C201.448 145.824 201.448 137.51 195.658 134.351ZM100 17.8258L174.265 58.3332L100 98.841L25.7364 58.3332L100 17.8258ZM46.5258 88.659L96.0102 115.649C96.1563 115.729 96.3043 115.803 96.4536 115.873C96.4633 115.878 96.4727 115.883 96.4825 115.888C96.5512 115.92 96.6215 115.947 96.6911 115.977C96.8126 116.03 96.934 116.08 97.0575 116.127C97.3293 116.23 97.6051 116.318 97.8844 116.391C97.9086 116.398 97.9329 116.406 97.9571 116.412C98.4426 116.535 98.9372 116.612 99.4336 116.646C99.8114 116.671 100.191 116.671 100.568 116.646C101.065 116.612 101.559 116.535 102.045 116.412C102.07 116.406 102.093 116.398 102.118 116.391C102.397 116.318 102.672 116.23 102.945 116.127C103.068 116.08 103.19 116.029 103.311 115.977C103.381 115.947 103.451 115.92 103.52 115.888C103.529 115.883 103.539 115.877 103.548 115.873C103.698 115.803 103.846 115.729 103.992 115.649L153.476 88.659L174.266 99.9996L100 140.507L25.736 99.9996L46.5258 88.659ZM100 182.174L25.736 141.666L46.5258 130.326L96.0102 157.316C96.1563 157.396 96.3043 157.47 96.4536 157.54C96.4633 157.545 96.4727 157.55 96.4825 157.554C96.5512 157.586 96.6215 157.614 96.6911 157.644C96.8126 157.696 96.934 157.747 97.0575 157.794C97.3293 157.896 97.6051 157.985 97.8844 158.058C97.9086 158.064 97.9329 158.073 97.9571 158.079C97.9829 158.086 98.009 158.09 98.0348 158.096C99.3266 158.41 100.675 158.41 101.967 158.096C101.993 158.09 102.019 158.086 102.045 158.079C102.07 158.073 102.093 158.064 102.118 158.058C102.397 157.985 102.672 157.896 102.945 157.794C103.068 157.747 103.19 157.696 103.311 157.644C103.381 157.614 103.451 157.587 103.52 157.554C103.529 157.55 103.539 157.544 103.548 157.54C103.698 157.47 103.846 157.396 103.992 157.316L153.476 130.326L174.266 141.666L100 182.174Z" fill="black" stroke="black" stroke-width="0.390625"/>
</g>
<defs>
<clipPath id="clip0_2446_2">
<rect width="200" height="200" fill="white"/>
</clipPath>
</defs>
</svg>
